 <svg
        width="156px"
        height="156px"
        viewBox="0 0 156 156"
        version="1.1"
        xmlns="http://www.w3.org/2000/svg"
        xmlns:xlink="http://www.w3.org/1999/xlink"
      >
        <g
          id="Artboard"
          stroke="none"
          stroke-width="1"
          fill="none"
          fill-rule="evenodd"
        >
          <g
            id="icon_navmenu_close"
            transform="translate(19.000000, 0.000000)"
            fill-rule="nonzero"
          >
            <circle
              id="White_Circle"
              fill="#3DAAE7"
              cx="59.1"
              cy="78"
              r="40.5"
            ></circle>
            <g
              id="White_Circle_3_"
              transform="translate(21.000000, 139.000000)"
              fill="#3DAAE7"
            >
              <path
                d="M38.1,17 C25.1,17 12.3,13.7 0.9,7.6 L4.7,0.6 C14.9,6.1 26.4,9 38.1,9 L38.1,17 Z"
                id="Path"
              ></path>
            </g>
            <g
              id="Group"
              transform="translate(0.000000, 19.000000)"
              fill="#3DAAE7"
            >
              <path
                d="M8.2,55.4 C10.1,29 32.2,8 59.1,8 C86,8 108.1,29 110,55.4 L118,55.4 C116.1,24.5 90.4,0 59.1,0 C27.8,0 2.1,24.5 0.2,55.4 L8.2,55.4 Z"
                id="Path"
              ></path>
              <path
                d="M109.9,63.4 C107.7,89.5 85.7,110 59.1,110 C32.5,110 10.6,89.5 8.3,63.4 L0.3,63.4 C2.6,93.9 28.1,118 59.1,118 C90.1,118 115.6,93.9 117.9,63.4 L109.9,63.4 Z"
                id="Path"
              ></path>
            </g>
            <path
              d="M69.7,95.7 L41.4,67.4 C39.4,65.4 39.4,62.3 41.4,60.3 L41.4,60.3 C43.4,58.3 46.5,58.3 48.5,60.3 L76.8,88.6 C78.8,90.6 78.8,93.7 76.8,95.7 L76.8,95.7 C74.8,97.7 71.7,97.7 69.7,95.7 Z"
              id="Path"
              fill="#1D1D1F"
            ></path>
            <path
              d="M48.5,95.7 L76.8,67.4 C78.8,65.4 78.8,62.3 76.8,60.3 L76.8,60.3 C74.8,58.3 71.7,58.3 69.7,60.3 L41.4,88.6 C39.4,90.6 39.4,93.7 41.4,95.7 L41.4,95.7 C43.4,97.7 46.5,97.7 48.5,95.7 Z"
              id="Path"
              fill="#1D1D1F"
            ></path>
            <path
              d="M137,74.4 C135.1,33.1 100.9,0 59.1,0 L59.1,8 C96.5,8 127.1,37.5 129,74.4 L137,74.4 Z"
              id="Path"
              fill="#3DAAE7"
            ></path>
          </g>
        </g>
      </svg>
