<svg width="35" height="35" viewBox="0 0 35 35" fill="none" xmlns="http://www.w3.org/2000/svg">
<g clip-path="url(#clip0_19_74)">
<path d="M35 18.3885C35 19.3683 34.2056 20.1636 33.2249 20.1636C33.2213 20.1636 33.2142 20.1636 33.2071 20.1636H29.83V29.6045C29.83 30.5844 29.0347 31.3797 28.0549 31.3797H22.2254C21.2455 31.3797 20.4502 30.5844 20.4502 29.6045V24.6005C20.4502 22.9692 19.1225 21.6423 17.492 21.6423C15.8607 21.6423 14.5329 22.9692 14.5329 24.6005V29.6045C14.5329 30.5844 13.7376 31.3797 12.7578 31.3797H6.9274C5.94753 31.3797 5.15228 30.5844 5.15228 29.6045V20.1636H1.77512C1.02602 20.1636 0.356798 19.6949 0.104731 18.9902C-0.148224 18.2846 0.0665657 17.4974 0.642592 17.0198L16.3595 4.02776C17.0163 3.48546 17.966 3.48546 18.6219 4.02776L34.1941 16.8991C34.6787 17.2169 35 17.7654 35 18.3885Z" fill="white"/>
</g>
<defs>
<clipPath id="clip0_19_74">
<rect width="35" height="35" fill="white"/>
</clipPath>
</defs>
</svg>
