<svg width="30" height="30" viewBox="0 0 30 30" fill="none" xmlns="http://www.w3.org/2000/svg">
<path fill-rule="evenodd" clip-rule="evenodd" d="M0 15C0 6.71573 6.71573 0 15 0C23.2843 0 30 6.71573 30 15C30 23.2843 23.2843 30 15 30C6.71573 30 0 23.2843 0 15ZM3.45148 16.6667C4.2602 22.3205 9.12255 26.6667 15 26.6667C20.8775 26.6667 25.7398 22.3205 26.5485 16.6667H19.7155C19.029 18.6087 17.177 20 15 20C12.823 20 10.9708 18.6087 10.2845 16.6667H3.45148ZM26.5485 13.3333C25.7398 7.67952 20.8775 3.33333 15 3.33333C9.12255 3.33333 4.2602 7.67952 3.45148 13.3333H10.2845C10.9708 11.3913 12.823 10 15 10C17.177 10 19.029 11.3913 19.7155 13.3333H26.5485ZM15 16.6667C15.9205 16.6667 16.6667 15.9205 16.6667 15C16.6667 14.0795 15.9205 13.3333 15 13.3333C14.0795 13.3333 13.3333 14.0795 13.3333 15C13.3333 15.9205 14.0795 16.6667 15 16.6667Z" fill="white"/>
</svg>
